<svg xmlns="http://www.w3.org/2000/svg" width="30" height="30" viewBox="0 0 30 30">
  <path id="Path_2" data-name="Path 2" d="M-5771.8-6794.8v-1.4a1.046,1.046,0,0,1,1.044-1.047,1.047,1.047,0,0,1,1.047,1.047v1.4a1.046,1.046,0,0,1-1.047,1.046A1.045,1.045,0,0,1-5771.8-6794.8Zm10.17-3.348-.548-.548a1.046,1.046,0,0,1,0-1.479,1.044,1.044,0,0,1,1.479,0l.55.547a1.046,1.046,0,0,1,0,1.479,1.051,1.051,0,0,1-.741.306A1.054,1.054,0,0,1-5761.626-6798.145Zm-19.73,0a1.042,1.042,0,0,1,0-1.479l.547-.547a1.045,1.045,0,0,1,1.479,0,1.045,1.045,0,0,1,0,1.479l-.547.548a1.046,1.046,0,0,1-.738.306A1.057,1.057,0,0,1-5781.356-6798.145Zm2.234-10.6a8.373,8.373,0,0,1,8.371-8.373,8.374,8.374,0,0,1,8.373,8.373,8.371,8.371,0,0,1-8.373,8.37A8.37,8.37,0,0,1-5779.123-6808.75Zm20.93,1.046a1.048,1.048,0,0,1-1.047-1.046,1.046,1.046,0,0,1,1.047-1.047h1.4a1.046,1.046,0,0,1,1.046,1.047,1.047,1.047,0,0,1-1.046,1.046Zm-26.512,0a1.048,1.048,0,0,1-1.047-1.046,1.046,1.046,0,0,1,1.047-1.047h1.4a1.046,1.046,0,0,1,1.046,1.047,1.048,1.048,0,0,1-1.046,1.046Zm22.53-9.624a1.047,1.047,0,0,1,0-1.479l.548-.55a1.049,1.049,0,0,1,1.481,0,1.049,1.049,0,0,1,0,1.482l-.55.547a1.041,1.041,0,0,1-.738.306A1.052,1.052,0,0,1-5762.174-6817.328Zm-18.636,0-.547-.547a1.046,1.046,0,0,1,0-1.482,1.046,1.046,0,0,1,1.479,0l.547.547a1.049,1.049,0,0,1,0,1.482,1.042,1.042,0,0,1-.738.306A1.054,1.054,0,0,1-5780.81-6817.328Zm9.014-3.981v-1.395a1.047,1.047,0,0,1,1.044-1.048,1.048,1.048,0,0,1,1.047,1.048v1.395a1.046,1.046,0,0,1-1.047,1.047A1.045,1.045,0,0,1-5771.8-6821.309Z" transform="translate(5785.751 6823.751)" fill="rgba(0,0,0,0.9)"/>
</svg>
